<?xml version="1.0" encoding="UTF-8"?><svg xmlns="http://www.w3.org/2000/svg" xmlns:xlink="http://www.w3.org/1999/xlink" fill-opacity="1" color-rendering="auto" color-interpolation="auto" text-rendering="auto" stroke="black" stroke-linecap="square" width="787" stroke-miterlimit="10" shape-rendering="auto" stroke-opacity="1" fill="black" stroke-dasharray="none" font-weight="normal" stroke-width="1" height="329" font-family="'Dialog'" font-style="normal" stroke-linejoin="miter" font-size="12px" stroke-dashoffset="0" image-rendering="auto">
  <!--Generated by ySVG 2.5-->
  <defs id="genericDefs"/>
  <g>
    <defs id="defs1">
      <clipPath clipPathUnits="userSpaceOnUse" id="clipPath1">
        <path d="M0 0 L787 0 L787 329 L0 329 L0 0 Z"/>
      </clipPath>
      <clipPath clipPathUnits="userSpaceOnUse" id="clipPath2">
        <path d="M312 82 L1099 82 L1099 411 L312 411 L312 82 Z"/>
      </clipPath>
      <clipPath clipPathUnits="userSpaceOnUse" id="clipPath3">
        <path d="M0 0 L0 18 L14 18 L14 0 Z"/>
      </clipPath>
      <script type="text/ecmascript">
        <![CDATA[      var SVGDocument = null;
      var SVGRoot = null;
      var TrueCoords = null;
      var lastElement = null;
      var initialized = null;
      var tipGroup;
      function Init(evt)
      {
         SVGDocument = evt.target.ownerDocument;
         SVGRoot = SVGDocument.documentElement;
         TrueCoords = SVGRoot.createSVGPoint();
         initialized = evt;
      };
      function GetTrueCoords(evt)
      {
         var newScale = SVGRoot.currentScale;
         var translation = SVGRoot.currentTranslate;
         TrueCoords.x = (evt.clientX - translation.x)/newScale;
         TrueCoords.y = (evt.clientY - translation.y)/newScale;
      };
      function HideTooltip( evt )
      {
         if(initialized == null) {
           Init(evt);
         }
         if(tipGroup != null) {
           tipGroup.setAttributeNS(null, 'visibility', 'hidden');
         }
      };
      function ShowTooltip( evt )
      {
         if(initialized == null) {
           Init(evt);
         }
         GetTrueCoords( evt );
         var tipScale = 1/SVGRoot.currentScale;
         var targetElement = evt.currentTarget;
         if ( lastElement != targetElement )
         {
            var targetId = targetElement.getAttributeNS(null, 'id');
            var tipId = 'tooltip.' + targetId;
            tipGroup = SVGDocument.getElementById(tipId);
            var xPos = TrueCoords.x + (10 * tipScale);
            var yPos = TrueCoords.y + (10 * tipScale);
            tipGroup.setAttributeNS(null, 'transform', 'translate(' + xPos + ',' + yPos + ') scale(' + tipScale + ')');
            tipGroup.setAttributeNS(null, 'visibility', 'visible');
         }
      };
]]>
      </script>
    </defs>
    <g fill="white" text-rendering="geometricPrecision" shape-rendering="geometricPrecision" transform="translate(-312,-82)" stroke="white">
      <rect x="312" width="787" height="329" y="82" clip-path="url(#clipPath2)" stroke="none"/>
    </g>
    <g id="y.node.0">
      <g fill="rgb(255,204,0)" text-rendering="geometricPrecision" shape-rendering="geometricPrecision" transform="matrix(1,0,0,1,-312,-82)" stroke="rgb(255,204,0)">
        <rect x="473.3408" width="68" height="30" y="195.176" stroke="none"/>
      </g>
      <g text-rendering="geometricPrecision" stroke-miterlimit="1.45" shape-rendering="geometricPrecision" transform="matrix(1,0,0,1,-312,-82)" stroke-linecap="butt">
        <rect fill="none" x="473.3408" width="68" height="30" y="195.176"/>
      </g>
      <g>
        <g text-rendering="geometricPrecision" stroke-miterlimit="1.45" shape-rendering="geometricPrecision" font-family="sans-serif" transform="matrix(1,0,0,1,-312,-82)" stroke-linecap="butt">
          <text x="487.999" xml:space="preserve" y="214.8899" stroke="none">players</text>
        </g>
      </g>
    </g>
    <g id="y.node.1">
      <g fill="rgb(255,204,0)" text-rendering="geometricPrecision" shape-rendering="geometricPrecision" transform="matrix(1,0,0,1,-312,-82)" stroke="rgb(255,204,0)">
        <rect x="837.992" width="58.2624" height="30" y="217.704" stroke="none"/>
      </g>
      <g text-rendering="geometricPrecision" stroke-miterlimit="1.45" shape-rendering="geometricPrecision" transform="matrix(1,0,0,1,-312,-82)" stroke-linecap="butt">
        <rect fill="none" x="837.992" width="58.2624" height="30" y="217.704"/>
      </g>
      <g>
        <g text-rendering="geometricPrecision" stroke-miterlimit="1.45" shape-rendering="geometricPrecision" font-family="sans-serif" transform="matrix(1,0,0,1,-312,-82)" stroke-linecap="butt">
          <text x="849.1144" xml:space="preserve" y="237.4179" stroke="none">games</text>
        </g>
      </g>
    </g>
    <g id="y.node.2">
      <g fill="rgb(255,204,0)" text-rendering="geometricPrecision" shape-rendering="geometricPrecision" transform="matrix(1,0,0,1,-312,-82)" stroke="rgb(255,204,0)">
        <circle r="15" cx="364.1899" cy="217.8416" stroke="none"/>
      </g>
      <g text-rendering="geometricPrecision" stroke-miterlimit="1.45" shape-rendering="geometricPrecision" transform="matrix(1,0,0,1,-312,-82)" stroke-linecap="butt">
        <circle fill="none" r="15" cx="364.1899" cy="217.8416"/>
      </g>
      <g>
        <g text-rendering="geometricPrecision" stroke-miterlimit="1.45" shape-rendering="geometricPrecision" font-family="sans-serif" transform="matrix(1,0,0,1,-312,-82)" stroke-linecap="butt">
          <text x="358.1899" xml:space="preserve" y="222.5555" stroke="none">ID</text>
          <line y2="225.1922" fill="none" x1="358.1899" x2="370.1899" y1="225.1922"/>
        </g>
      </g>
    </g>
    <g id="y.node.3">
      <g fill="rgb(255,204,0)" text-rendering="geometricPrecision" shape-rendering="geometricPrecision" transform="matrix(1,0,0,1,-312,-82)" stroke="rgb(255,204,0)">
        <circle r="15" cx="836.4032" cy="161.3312" stroke="none"/>
      </g>
      <g text-rendering="geometricPrecision" stroke-miterlimit="1.45" shape-rendering="geometricPrecision" transform="matrix(1,0,0,1,-312,-82)" stroke-linecap="butt">
        <circle fill="none" r="15" cx="836.4032" cy="161.3312"/>
      </g>
      <g>
        <g text-rendering="geometricPrecision" stroke-miterlimit="1.45" shape-rendering="geometricPrecision" font-family="sans-serif" transform="matrix(1,0,0,1,-312,-82)" stroke-linecap="butt">
          <text x="830.4032" xml:space="preserve" y="166.0451" stroke="none">ID</text>
          <line y2="168.6818" fill="none" x1="830.4032" x2="842.4032" y1="168.6818"/>
        </g>
      </g>
    </g>
    <g id="y.node.4">
      <g fill="rgb(255,204,0)" text-rendering="geometricPrecision" shape-rendering="geometricPrecision" transform="matrix(1,0,0,1,-312,-82)" stroke="rgb(255,204,0)">
        <ellipse rx="25.4448" ry="15" cx="946.8864" cy="112.544" stroke="none"/>
      </g>
      <g text-rendering="geometricPrecision" stroke-miterlimit="1.45" shape-rendering="geometricPrecision" transform="matrix(1,0,0,1,-312,-82)" stroke-linecap="butt">
        <ellipse rx="25.4448" fill="none" ry="15" cx="946.8864" cy="112.544"/>
      </g>
      <g>
        <g text-rendering="geometricPrecision" stroke-miterlimit="1.45" shape-rendering="geometricPrecision" font-family="sans-serif" transform="matrix(1,0,0,1,-312,-82)" stroke-linecap="butt">
          <text x="937.8835" xml:space="preserve" y="117.2579" stroke="none">link</text>
        </g>
      </g>
    </g>
    <g id="y.node.5">
      <g fill="rgb(255,204,0)" text-rendering="geometricPrecision" shape-rendering="geometricPrecision" transform="matrix(1,0,0,1,-312,-82)" stroke="rgb(255,204,0)">
        <ellipse rx="40.6" ry="15" cx="980.32" cy="153.544" stroke="none"/>
      </g>
      <g text-rendering="geometricPrecision" stroke-miterlimit="1.45" shape-rendering="geometricPrecision" transform="matrix(1,0,0,1,-312,-82)" stroke-linecap="butt">
        <ellipse rx="40.6" fill="none" ry="15" cx="980.32" cy="153.544"/>
      </g>
      <g>
        <g text-rendering="geometricPrecision" stroke-miterlimit="1.45" shape-rendering="geometricPrecision" font-family="sans-serif" transform="matrix(1,0,0,1,-312,-82)" stroke-linecap="butt">
          <text x="956.9733" xml:space="preserve" y="158.2579" stroke="none">startdate</text>
        </g>
      </g>
    </g>
    <g id="y.node.6">
      <g fill="rgb(255,204,0)" text-rendering="geometricPrecision" shape-rendering="geometricPrecision" transform="matrix(1,0,0,1,-312,-82)" stroke="rgb(255,204,0)">
        <ellipse rx="31.1792" ry="15" cx="882.5824" cy="131.3312" stroke="none"/>
      </g>
      <g text-rendering="geometricPrecision" stroke-miterlimit="1.45" shape-rendering="geometricPrecision" transform="matrix(1,0,0,1,-312,-82)" stroke-linecap="butt">
        <ellipse rx="31.1792" fill="none" ry="15" cx="882.5824" cy="131.3312"/>
      </g>
      <g>
        <g text-rendering="geometricPrecision" stroke-miterlimit="1.45" shape-rendering="geometricPrecision" font-family="sans-serif" transform="matrix(1,0,0,1,-312,-82)" stroke-linecap="butt">
          <text x="867.5736" xml:space="preserve" y="136.0451" stroke="none">name</text>
        </g>
      </g>
    </g>
    <g id="y.node.7">
      <g fill="rgb(255,204,0)" text-rendering="geometricPrecision" shape-rendering="geometricPrecision" transform="matrix(1,0,0,1,-312,-82)" stroke="rgb(255,204,0)">
        <ellipse rx="24.8304" ry="15" cx="1032.064" cy="181.7968" stroke="none"/>
      </g>
      <g text-rendering="geometricPrecision" stroke-miterlimit="1.45" shape-rendering="geometricPrecision" transform="matrix(1,0,0,1,-312,-82)" stroke-linecap="butt">
        <ellipse rx="24.8304" fill="none" ry="15" cx="1032.064" cy="181.7968"/>
      </g>
      <g>
        <g text-rendering="geometricPrecision" stroke-miterlimit="1.45" shape-rendering="geometricPrecision" font-family="sans-serif" transform="matrix(1,0,0,1,-312,-82)" stroke-linecap="butt">
          <text x="1017.0552" xml:space="preserve" y="186.5107" stroke="none">card1</text>
        </g>
      </g>
    </g>
    <g id="y.node.8">
      <g fill="rgb(255,204,0)" text-rendering="geometricPrecision" shape-rendering="geometricPrecision" transform="matrix(1,0,0,1,-312,-82)" stroke="rgb(255,204,0)">
        <ellipse rx="24.8304" ry="15" cx="1002.592" cy="286.384" stroke="none"/>
      </g>
      <g text-rendering="geometricPrecision" stroke-miterlimit="1.45" shape-rendering="geometricPrecision" transform="matrix(1,0,0,1,-312,-82)" stroke-linecap="butt">
        <ellipse rx="24.8304" fill="none" ry="15" cx="1002.592" cy="286.384"/>
      </g>
      <g>
        <g text-rendering="geometricPrecision" stroke-miterlimit="1.45" shape-rendering="geometricPrecision" font-family="sans-serif" transform="matrix(1,0,0,1,-312,-82)" stroke-linecap="butt">
          <text x="987.5832" xml:space="preserve" y="291.0979" stroke="none">card5</text>
        </g>
      </g>
    </g>
    <g id="y.node.9">
      <g fill="rgb(255,204,0)" text-rendering="geometricPrecision" shape-rendering="geometricPrecision" transform="matrix(1,0,0,1,-312,-82)" stroke="rgb(255,204,0)">
        <ellipse rx="24.8304" ry="15" cx="1021.1072" cy="246.632" stroke="none"/>
      </g>
      <g text-rendering="geometricPrecision" stroke-miterlimit="1.45" shape-rendering="geometricPrecision" transform="matrix(1,0,0,1,-312,-82)" stroke-linecap="butt">
        <ellipse rx="24.8304" fill="none" ry="15" cx="1021.1072" cy="246.632"/>
      </g>
      <g>
        <g text-rendering="geometricPrecision" stroke-miterlimit="1.45" shape-rendering="geometricPrecision" font-family="sans-serif" transform="matrix(1,0,0,1,-312,-82)" stroke-linecap="butt">
          <text x="1006.0984" xml:space="preserve" y="251.3459" stroke="none">card3</text>
        </g>
      </g>
    </g>
    <g id="y.node.10">
      <g fill="rgb(255,204,0)" text-rendering="geometricPrecision" shape-rendering="geometricPrecision" transform="matrix(1,0,0,1,-312,-82)" stroke="rgb(255,204,0)">
        <ellipse rx="24.8304" ry="15" cx="1058.272" cy="217.88" stroke="none"/>
      </g>
      <g text-rendering="geometricPrecision" stroke-miterlimit="1.45" shape-rendering="geometricPrecision" transform="matrix(1,0,0,1,-312,-82)" stroke-linecap="butt">
        <ellipse rx="24.8304" fill="none" ry="15" cx="1058.272" cy="217.88"/>
      </g>
      <g>
        <g text-rendering="geometricPrecision" stroke-miterlimit="1.45" shape-rendering="geometricPrecision" font-family="sans-serif" transform="matrix(1,0,0,1,-312,-82)" stroke-linecap="butt">
          <text x="1043.2632" xml:space="preserve" y="222.5939" stroke="none">card2</text>
        </g>
      </g>
    </g>
    <g id="y.node.11">
      <g fill="rgb(255,204,0)" text-rendering="geometricPrecision" shape-rendering="geometricPrecision" transform="matrix(1,0,0,1,-312,-82)" stroke="rgb(255,204,0)">
        <ellipse rx="24.8304" ry="15" cx="1058.272" cy="275.888" stroke="none"/>
      </g>
      <g text-rendering="geometricPrecision" stroke-miterlimit="1.45" shape-rendering="geometricPrecision" transform="matrix(1,0,0,1,-312,-82)" stroke-linecap="butt">
        <ellipse rx="24.8304" fill="none" ry="15" cx="1058.272" cy="275.888"/>
      </g>
      <g>
        <g text-rendering="geometricPrecision" stroke-miterlimit="1.45" shape-rendering="geometricPrecision" font-family="sans-serif" transform="matrix(1,0,0,1,-312,-82)" stroke-linecap="butt">
          <text x="1043.2632" xml:space="preserve" y="280.6019" stroke="none">card4</text>
        </g>
      </g>
    </g>
    <g id="y.node.12">
      <g fill="rgb(255,204,0)" text-rendering="geometricPrecision" shape-rendering="geometricPrecision" transform="matrix(1,0,0,1,-312,-82)" stroke="rgb(255,204,0)">
        <ellipse rx="38.296" ry="15" cx="409.2368" cy="187.8416" stroke="none"/>
      </g>
      <g text-rendering="geometricPrecision" stroke-miterlimit="1.45" shape-rendering="geometricPrecision" transform="matrix(1,0,0,1,-312,-82)" stroke-linecap="butt">
        <ellipse rx="38.296" fill="none" ry="15" cx="409.2368" cy="187.8416"/>
      </g>
      <g>
        <g stroke-linecap="butt" transform="matrix(1,0,0,1,-312,-82)" text-rendering="geometricPrecision" font-family="sans-serif" shape-rendering="geometricPrecision" font-weight="bold" stroke-miterlimit="1.45">
          <text x="384.894" xml:space="preserve" y="192.5555" stroke="none">game_id</text>
        </g>
      </g>
    </g>
    <g id="y.node.13">
      <g fill="rgb(255,204,0)" text-rendering="geometricPrecision" shape-rendering="geometricPrecision" transform="matrix(1,0,0,1,-312,-82)" stroke="rgb(255,204,0)">
        <ellipse rx="29.1312" ry="15" cx="418.4016" cy="142.496" stroke="none"/>
      </g>
      <g text-rendering="geometricPrecision" stroke-miterlimit="1.45" shape-rendering="geometricPrecision" transform="matrix(1,0,0,1,-312,-82)" stroke-linecap="butt">
        <ellipse rx="29.1312" fill="none" ry="15" cx="418.4016" cy="142.496"/>
      </g>
      <g>
        <g text-rendering="geometricPrecision" stroke-miterlimit="1.45" shape-rendering="geometricPrecision" font-family="sans-serif" transform="matrix(1,0,0,1,-312,-82)" stroke-linecap="butt">
          <text x="403.3928" xml:space="preserve" y="147.2099" stroke="none">name</text>
        </g>
      </g>
    </g>
    <g id="y.node.14">
      <g fill="rgb(255,204,0)" text-rendering="geometricPrecision" shape-rendering="geometricPrecision" transform="matrix(1,0,0,1,-312,-82)" stroke="rgb(255,204,0)">
        <ellipse rx="31.1792" ry="15" cx="499.2341" cy="153.544" stroke="none"/>
      </g>
      <g text-rendering="geometricPrecision" stroke-miterlimit="1.45" shape-rendering="geometricPrecision" transform="matrix(1,0,0,1,-312,-82)" stroke-linecap="butt">
        <ellipse rx="31.1792" fill="none" ry="15" cx="499.2341" cy="153.544"/>
      </g>
      <g>
        <g text-rendering="geometricPrecision" stroke-miterlimit="1.45" shape-rendering="geometricPrecision" font-family="sans-serif" transform="matrix(1,0,0,1,-312,-82)" stroke-linecap="butt">
          <text x="481.2253" xml:space="preserve" y="158.2579" stroke="none">money</text>
        </g>
      </g>
    </g>
    <g id="y.node.15">
      <g fill="rgb(255,204,0)" text-rendering="geometricPrecision" shape-rendering="geometricPrecision" transform="matrix(1,0,0,1,-312,-82)" stroke="rgb(255,204,0)">
        <ellipse rx="29.1312" ry="15" cx="364.1899" cy="267.7816" stroke="none"/>
      </g>
      <g text-rendering="geometricPrecision" stroke-miterlimit="1.45" shape-rendering="geometricPrecision" transform="matrix(1,0,0,1,-312,-82)" stroke-linecap="butt">
        <ellipse rx="29.1312" fill="none" ry="15" cx="364.1899" cy="267.7816"/>
      </g>
      <g>
        <g text-rendering="geometricPrecision" stroke-miterlimit="1.45" shape-rendering="geometricPrecision" font-family="sans-serif" transform="matrix(1,0,0,1,-312,-82)" stroke-linecap="butt">
          <text x="349.1811" xml:space="preserve" y="272.4955" stroke="none">card1</text>
        </g>
      </g>
    </g>
    <g id="y.node.16">
      <g fill="rgb(255,204,0)" text-rendering="geometricPrecision" shape-rendering="geometricPrecision" transform="matrix(1,0,0,1,-312,-82)" stroke="rgb(255,204,0)">
        <ellipse rx="29.1312" ry="15" cx="356.8128" cy="322.6272" stroke="none"/>
      </g>
      <g text-rendering="geometricPrecision" stroke-miterlimit="1.45" shape-rendering="geometricPrecision" transform="matrix(1,0,0,1,-312,-82)" stroke-linecap="butt">
        <ellipse rx="29.1312" fill="none" ry="15" cx="356.8128" cy="322.6272"/>
      </g>
      <g>
        <g text-rendering="geometricPrecision" stroke-miterlimit="1.45" shape-rendering="geometricPrecision" font-family="sans-serif" transform="matrix(1,0,0,1,-312,-82)" stroke-linecap="butt">
          <text x="341.804" xml:space="preserve" y="327.3411" stroke="none">card2</text>
        </g>
      </g>
    </g>
    <g id="y.node.17">
      <g fill="rgb(255,204,0)" text-rendering="geometricPrecision" shape-rendering="geometricPrecision" transform="matrix(1,0,0,1,-312,-82)" stroke="rgb(255,204,0)">
        <ellipse rx="48.792" ry="15" cx="915.2704" cy="359.3312" stroke="none"/>
      </g>
      <g text-rendering="geometricPrecision" stroke-miterlimit="1.45" shape-rendering="geometricPrecision" transform="matrix(1,0,0,1,-312,-82)" stroke-linecap="butt">
        <ellipse rx="48.792" fill="none" ry="15" cx="915.2704" cy="359.3312"/>
      </g>
      <g>
        <g text-rendering="geometricPrecision" stroke-miterlimit="1.45" shape-rendering="geometricPrecision" font-family="sans-serif" transform="matrix(1,0,0,1,-312,-82)" stroke-linecap="butt">
          <text x="882.2557" xml:space="preserve" y="364.0451" stroke="none">start_money</text>
        </g>
      </g>
    </g>
    <g id="y.node.18">
      <g fill="rgb(255,204,0)" text-rendering="geometricPrecision" shape-rendering="geometricPrecision" transform="matrix(1,0,0,1,-312,-82)" stroke="rgb(255,204,0)">
        <ellipse rx="44.952" ry="15" cx="791.5264" cy="350.5184" stroke="none"/>
      </g>
      <g text-rendering="geometricPrecision" stroke-miterlimit="1.45" shape-rendering="geometricPrecision" transform="matrix(1,0,0,1,-312,-82)" stroke-linecap="butt">
        <ellipse rx="44.952" fill="none" ry="15" cx="791.5264" cy="350.5184"/>
      </g>
      <g>
        <g text-rendering="geometricPrecision" stroke-miterlimit="1.45" shape-rendering="geometricPrecision" font-family="sans-serif" transform="matrix(1,0,0,1,-312,-82)" stroke-linecap="butt">
          <text x="761.5118" xml:space="preserve" y="355.2323" stroke="none">small_blind</text>
        </g>
      </g>
    </g>
    <g id="y.node.19">
      <g fill="rgb(255,204,0)" text-rendering="geometricPrecision" shape-rendering="geometricPrecision" transform="matrix(1,0,0,1,-312,-82)" stroke="rgb(255,204,0)">
        <ellipse rx="34" ry="15" cx="434.1712" cy="309.8272" stroke="none"/>
      </g>
      <g text-rendering="geometricPrecision" stroke-miterlimit="1.45" shape-rendering="geometricPrecision" transform="matrix(1,0,0,1,-312,-82)" stroke-linecap="butt">
        <ellipse rx="34" fill="none" ry="15" cx="434.1712" cy="309.8272"/>
      </g>
      <g>
        <g text-rendering="geometricPrecision" stroke-miterlimit="1.45" shape-rendering="geometricPrecision" font-family="sans-serif" transform="matrix(1,0,0,1,-312,-82)" stroke-linecap="butt">
          <text x="410.8275" xml:space="preserve" y="314.5411" stroke="none">is_active</text>
        </g>
      </g>
    </g>
    <g id="y.node.20">
      <g fill="rgb(255,204,0)" text-rendering="geometricPrecision" shape-rendering="geometricPrecision" transform="matrix(1,0,0,1,-312,-82)" stroke="rgb(255,204,0)">
        <ellipse rx="42.252" ry="15" cx="480.5848" cy="345.544" stroke="none"/>
      </g>
      <g text-rendering="geometricPrecision" stroke-miterlimit="1.45" shape-rendering="geometricPrecision" transform="matrix(1,0,0,1,-312,-82)" stroke-linecap="butt">
        <ellipse rx="42.252" fill="none" ry="15" cx="480.5848" cy="345.544"/>
      </g>
      <g>
        <g text-rendering="geometricPrecision" stroke-miterlimit="1.45" shape-rendering="geometricPrecision" font-family="sans-serif" transform="matrix(1,0,0,1,-312,-82)" stroke-linecap="butt">
          <text x="453.2303" xml:space="preserve" y="350.2579" stroke="none">is_paused</text>
        </g>
      </g>
    </g>
    <g id="y.node.21">
      <g fill="rgb(255,204,0)" text-rendering="geometricPrecision" shape-rendering="geometricPrecision" transform="matrix(1,0,0,1,-312,-82)" stroke="rgb(255,204,0)">
        <ellipse rx="36.504" ry="15" cx="534.6752" cy="309.8272" stroke="none"/>
      </g>
      <g text-rendering="geometricPrecision" stroke-miterlimit="1.45" shape-rendering="geometricPrecision" transform="matrix(1,0,0,1,-312,-82)" stroke-linecap="butt">
        <ellipse rx="36.504" fill="none" ry="15" cx="534.6752" cy="309.8272"/>
      </g>
      <g>
        <g text-rendering="geometricPrecision" stroke-miterlimit="1.45" shape-rendering="geometricPrecision" font-family="sans-serif" transform="matrix(1,0,0,1,-312,-82)" stroke-linecap="butt">
          <text x="509.3246" xml:space="preserve" y="314.5411" stroke="none">cookie_id</text>
        </g>
      </g>
    </g>
    <g id="y.node.22">
      <g fill="rgb(255,204,0)" text-rendering="geometricPrecision" shape-rendering="geometricPrecision" transform="matrix(1,0,0,1,-312,-82)" stroke="rgb(255,204,0)">
        <ellipse rx="40.6" ry="15" cx="564.6288" cy="123.544" stroke="none"/>
      </g>
      <g text-rendering="geometricPrecision" stroke-miterlimit="1.45" shape-rendering="geometricPrecision" transform="matrix(1,0,0,1,-312,-82)" stroke-linecap="butt">
        <ellipse rx="40.6" fill="none" ry="15" cx="564.6288" cy="123.544"/>
      </g>
      <g>
        <g text-rendering="geometricPrecision" stroke-miterlimit="1.45" shape-rendering="geometricPrecision" font-family="sans-serif" transform="matrix(1,0,0,1,-312,-82)" stroke-linecap="butt">
          <text x="534.2772" xml:space="preserve" y="128.2579" stroke="none">current_bet</text>
        </g>
      </g>
    </g>
    <g id="y.node.23">
      <g fill="rgb(255,204,0)" text-rendering="geometricPrecision" shape-rendering="geometricPrecision" transform="matrix(1,0,0,1,-312,-82)" stroke="rgb(255,204,0)">
        <ellipse rx="20.12" ry="15" cx="846.3584" cy="380.5184" stroke="none"/>
      </g>
      <g text-rendering="geometricPrecision" stroke-miterlimit="1.45" shape-rendering="geometricPrecision" transform="matrix(1,0,0,1,-312,-82)" stroke-linecap="butt">
        <ellipse rx="20.12" fill="none" ry="15" cx="846.3584" cy="380.5184"/>
      </g>
      <g>
        <g text-rendering="geometricPrecision" stroke-miterlimit="1.45" shape-rendering="geometricPrecision" font-family="sans-serif" transform="matrix(1,0,0,1,-312,-82)" stroke-linecap="butt">
          <text x="838.0176" xml:space="preserve" y="385.2323" stroke="none">pot</text>
        </g>
      </g>
    </g>
    <g id="y.node.24">
      <g fill="rgb(255,204,0)" text-rendering="geometricPrecision" shape-rendering="geometricPrecision" transform="matrix(1,0,0,1,-312,-82)" stroke="rgb(255,204,0)">
        <ellipse rx="38.296" ry="15" cx="605.1248" cy="157.132" stroke="none"/>
      </g>
      <g text-rendering="geometricPrecision" stroke-miterlimit="1.45" shape-rendering="geometricPrecision" transform="matrix(1,0,0,1,-312,-82)" stroke-linecap="butt">
        <ellipse rx="38.296" fill="none" ry="15" cx="605.1248" cy="157.132"/>
      </g>
      <g>
        <g text-rendering="geometricPrecision" stroke-miterlimit="1.45" shape-rendering="geometricPrecision" font-family="sans-serif" transform="matrix(1,0,0,1,-312,-82)" stroke-linecap="butt">
          <text x="582.1063" xml:space="preserve" y="161.8459" stroke="none">total_bet</text>
        </g>
      </g>
    </g>
    <g id="y.node.25">
      <g fill="rgb(255,204,0)" text-rendering="geometricPrecision" shape-rendering="geometricPrecision" transform="matrix(1,0,0,1,-312,-82)" stroke="rgb(255,204,0)">
        <path d="M650.3173 229.12 L695.2693 214.12 L740.2213 229.12 L695.2693 244.12 Z" stroke="none" fill-rule="evenodd"/>
      </g>
      <g text-rendering="geometricPrecision" stroke-miterlimit="1.45" shape-rendering="geometricPrecision" transform="matrix(1,0,0,1,-312,-82)" stroke-linecap="butt">
        <path fill="none" d="M650.3173 229.12 L695.2693 214.12 L740.2213 229.12 L695.2693 244.12 Z" fill-rule="evenodd"/>
      </g>
      <g/>
    </g>
    <g id="y.node.26">
      <g fill="rgb(255,204,0)" text-rendering="geometricPrecision" shape-rendering="geometricPrecision" transform="matrix(1,0,0,1,-312,-82)" stroke="rgb(255,204,0)">
        <ellipse rx="42.252" ry="15" cx="979.3464" cy="326.136" stroke="none"/>
      </g>
      <g text-rendering="geometricPrecision" stroke-miterlimit="1.45" shape-rendering="geometricPrecision" transform="matrix(1,0,0,1,-312,-82)" stroke-linecap="butt">
        <ellipse rx="42.252" fill="none" ry="15" cx="979.3464" cy="326.136"/>
      </g>
      <g>
        <g text-rendering="geometricPrecision" stroke-miterlimit="1.45" shape-rendering="geometricPrecision" font-family="sans-serif" transform="matrix(1,0,0,1,-312,-82)" stroke-linecap="butt">
          <text x="951.3298" xml:space="preserve" y="330.8499" stroke="none">gamestate</text>
        </g>
      </g>
    </g>
    <g id="y.node.27">
      <g fill="rgb(255,204,0)" text-rendering="geometricPrecision" shape-rendering="geometricPrecision" transform="matrix(1,0,0,1,-312,-82)" stroke="rgb(255,204,0)">
        <ellipse rx="69.08" ry="15" cx="727.5064" cy="309.8272" stroke="none"/>
      </g>
      <g text-rendering="geometricPrecision" stroke-miterlimit="1.45" shape-rendering="geometricPrecision" transform="matrix(1,0,0,1,-312,-82)" stroke-linecap="butt">
        <ellipse rx="69.08" fill="none" ry="15" cx="727.5064" cy="309.8272"/>
      </g>
      <g>
        <g stroke-linecap="butt" transform="matrix(1,0,0,1,-312,-82)" text-rendering="geometricPrecision" font-family="sans-serif" shape-rendering="geometricPrecision" font-weight="bold" stroke-miterlimit="1.45">
          <text x="675.1382" xml:space="preserve" y="314.5411" stroke="none">player_last_raised</text>
        </g>
      </g>
    </g>
    <g id="y.edge.0">
      <g text-rendering="geometricPrecision" stroke-miterlimit="1.45" shape-rendering="geometricPrecision" transform="matrix(1,0,0,1,-312,-82)" stroke-linecap="butt">
        <path fill="none" d="M473.3408 211.9967 L379.1684 217.0395"/>
      </g>
    </g>
    <g id="y.edge.1">
      <g text-rendering="geometricPrecision" stroke-miterlimit="1.45" shape-rendering="geometricPrecision" transform="matrix(1,0,0,1,-312,-82)" stroke-linecap="butt">
        <path fill="none" d="M860.6669 217.704 L842.3334 175.1092"/>
      </g>
    </g>
    <g id="y.edge.2">
      <g text-rendering="geometricPrecision" stroke-miterlimit="1.45" shape-rendering="geometricPrecision" transform="matrix(1,0,0,1,-312,-82)" stroke-linecap="butt">
        <path fill="none" d="M877.0803 217.704 L937.614 126.5126"/>
      </g>
    </g>
    <g id="y.edge.18">
      <g text-rendering="geometricPrecision" stroke-miterlimit="1.45" shape-rendering="geometricPrecision" transform="matrix(1,0,0,1,-312,-82)" stroke-linecap="butt">
        <path fill="none" d="M961.3545 166.8068 L888.5728 217.704"/>
      </g>
    </g>
    <g id="y.edge.19">
      <g text-rendering="geometricPrecision" stroke-miterlimit="1.45" shape-rendering="geometricPrecision" transform="matrix(1,0,0,1,-312,-82)" stroke-linecap="butt">
        <path fill="none" d="M880.301 146.291 L869.4107 217.704"/>
      </g>
    </g>
    <g id="y.edge.3">
      <g text-rendering="geometricPrecision" stroke-miterlimit="1.45" shape-rendering="geometricPrecision" transform="matrix(1,0,0,1,-312,-82)" stroke-linecap="butt">
        <path fill="none" d="M896.2544 223.713 L1009.9523 188.6213"/>
      </g>
    </g>
    <g id="y.edge.4">
      <g text-rendering="geometricPrecision" stroke-miterlimit="1.45" shape-rendering="geometricPrecision" transform="matrix(1,0,0,1,-312,-82)" stroke-linecap="butt">
        <path fill="none" d="M896.2544 244.2473 L981.8297 278.1569"/>
      </g>
    </g>
    <g id="y.edge.5">
      <g text-rendering="geometricPrecision" stroke-miterlimit="1.45" shape-rendering="geometricPrecision" transform="matrix(1,0,0,1,-312,-82)" stroke-linecap="butt">
        <path fill="none" d="M896.2544 235.3389 L996.5505 244.4108"/>
      </g>
    </g>
    <g id="y.edge.6">
      <g text-rendering="geometricPrecision" stroke-miterlimit="1.45" shape-rendering="geometricPrecision" transform="matrix(1,0,0,1,-312,-82)" stroke-linecap="butt">
        <path fill="none" d="M896.2544 230.4448 L1033.6437 219.79"/>
      </g>
    </g>
    <g id="y.edge.7">
      <g text-rendering="geometricPrecision" stroke-miterlimit="1.45" shape-rendering="geometricPrecision" transform="matrix(1,0,0,1,-312,-82)" stroke-linecap="butt">
        <path fill="none" d="M896.2544 239.2853 L1035.0148 270.6338"/>
      </g>
    </g>
    <g id="y.edge.8">
      <g text-rendering="geometricPrecision" stroke-miterlimit="1.45" shape-rendering="geometricPrecision" transform="matrix(1,0,0,1,-312,-82)" stroke-linecap="butt">
        <path fill="none" d="M442.3463 195.3793 L473.3408 202.4355"/>
      </g>
    </g>
    <g id="y.edge.9">
      <g text-rendering="geometricPrecision" stroke-miterlimit="1.45" shape-rendering="geometricPrecision" transform="matrix(1,0,0,1,-312,-82)" stroke-linecap="butt">
        <path fill="none" d="M487.6291 195.176 L434.7271 154.9192"/>
      </g>
    </g>
    <g id="y.edge.10">
      <g text-rendering="geometricPrecision" stroke-miterlimit="1.45" shape-rendering="geometricPrecision" transform="matrix(1,0,0,1,-312,-82)" stroke-linecap="butt">
        <path fill="none" d="M505.1936 195.176 L501.3763 168.5086"/>
      </g>
    </g>
    <g id="y.edge.11">
      <g text-rendering="geometricPrecision" stroke-miterlimit="1.45" shape-rendering="geometricPrecision" transform="matrix(1,0,0,1,-312,-82)" stroke-linecap="butt">
        <path fill="none" d="M387.143 258.545 L473.3408 223.858"/>
      </g>
    </g>
    <g id="y.edge.12">
      <g text-rendering="geometricPrecision" stroke-miterlimit="1.45" shape-rendering="geometricPrecision" transform="matrix(1,0,0,1,-312,-82)" stroke-linecap="butt">
        <path fill="none" d="M373.3452 310.2768 L487.2617 225.176"/>
      </g>
    </g>
    <g id="y.edge.13">
      <g text-rendering="geometricPrecision" stroke-miterlimit="1.45" shape-rendering="geometricPrecision" transform="matrix(1,0,0,1,-312,-82)" stroke-linecap="butt">
        <path fill="none" d="M909.6055 344.4326 L872.8266 247.704"/>
      </g>
    </g>
    <g id="y.edge.15">
      <g text-rendering="geometricPrecision" stroke-miterlimit="1.45" shape-rendering="geometricPrecision" transform="matrix(1,0,0,1,-312,-82)" stroke-linecap="butt">
        <path fill="none" d="M800.938 335.8509 L857.4983 247.704"/>
      </g>
    </g>
    <g id="y.edge.14">
      <g text-rendering="geometricPrecision" stroke-miterlimit="1.45" shape-rendering="geometricPrecision" transform="matrix(1,0,0,1,-312,-82)" stroke-linecap="butt">
        <path fill="none" d="M496.3269 225.176 L444.649 295.5573"/>
      </g>
    </g>
    <g id="y.edge.17">
      <g text-rendering="geometricPrecision" stroke-miterlimit="1.45" shape-rendering="geometricPrecision" transform="matrix(1,0,0,1,-312,-82)" stroke-linecap="butt">
        <path fill="none" d="M483.5423 330.5808 L504.376 225.176"/>
      </g>
    </g>
    <g id="y.edge.16">
      <g text-rendering="geometricPrecision" stroke-miterlimit="1.45" shape-rendering="geometricPrecision" transform="matrix(1,0,0,1,-312,-82)" stroke-linecap="butt">
        <path fill="none" d="M530.5866 294.9216 L511.4553 225.176"/>
      </g>
    </g>
    <g id="y.edge.20">
      <g text-rendering="geometricPrecision" stroke-miterlimit="1.45" shape-rendering="geometricPrecision" transform="matrix(1,0,0,1,-312,-82)" stroke-linecap="butt">
        <path fill="none" d="M517.26 195.176 L554.993 138.1154"/>
      </g>
    </g>
    <g id="y.edge.21">
      <g text-rendering="geometricPrecision" stroke-miterlimit="1.45" shape-rendering="geometricPrecision" transform="matrix(1,0,0,1,-312,-82)" stroke-linecap="butt">
        <path fill="none" d="M848.4541 365.6 L865.016 247.704"/>
      </g>
    </g>
    <g id="y.edge.22">
      <g text-rendering="geometricPrecision" stroke-miterlimit="1.45" shape-rendering="geometricPrecision" transform="matrix(1,0,0,1,-312,-82)" stroke-linecap="butt">
        <path fill="none" d="M534.9926 195.176 L582.7063 169.2932"/>
      </g>
    </g>
    <g id="y.edge.24">
      <g text-rendering="geometricPrecision" stroke-miterlimit="1.45" shape-rendering="geometricPrecision" transform="matrix(1,0,0,1,-312,-82)" stroke-linecap="butt">
        <path fill="none" d="M541.3408 213.6033 L660.7331 225.6386"/>
      </g>
      <g>
        <g text-rendering="geometricPrecision" stroke-miterlimit="1.45" shape-rendering="geometricPrecision" font-family="sans-serif" transform="matrix(1,0,0,1,-312,-82)" stroke-linecap="butt">
          <text x="554.5554" xml:space="preserve" y="219.9857" stroke="none">n</text>
        </g>
      </g>
    </g>
    <g onmouseout="HideTooltip(evt)" id="y.edge.23" onmousemove="ShowTooltip(evt)">
      <g text-rendering="geometricPrecision" stroke-miterlimit="1.45" shape-rendering="geometricPrecision" transform="matrix(1,0,0,1,-312,-82)" stroke-linecap="butt">
        <path fill="none" d="M737.6035 230.0029 L837.992 232.0965"/>
      </g>
      <g>
        <g text-rendering="geometricPrecision" stroke-miterlimit="1.45" shape-rendering="geometricPrecision" font-family="sans-serif" transform="matrix(1,0,0,1,-312,-82)" stroke-linecap="butt">
          <text x="824.3182" xml:space="preserve" y="236.5948" stroke="none">1</text>
        </g>
      </g>
    </g>
    <g id="y.edge.25">
      <g text-rendering="geometricPrecision" stroke-miterlimit="1.45" shape-rendering="geometricPrecision" transform="matrix(1,0,0,1,-312,-82)" stroke-linecap="butt">
        <path fill="none" d="M962.7734 312.3381 L885.14 247.704"/>
      </g>
    </g>
    <g id="y.edge.26">
      <g text-rendering="geometricPrecision" stroke-miterlimit="1.45" shape-rendering="geometricPrecision" transform="matrix(1,0,0,1,-312,-82)" stroke-linecap="butt">
        <path fill="none" d="M752.7786 295.867 L839.9686 247.704"/>
      </g>
    </g>
    <g visibility="hidden" id="tooltip.y.edge.23" pointer-events="none">
      <g fill="rgb(255,255,225)" text-rendering="geometricPrecision" shape-rendering="geometricPrecision" font-family="'Segoe UI'" stroke="rgb(255,255,225)">
        <rect x="0" width="14" height="18" y="0" clip-path="url(#clipPath3)" stroke="none"/>
        <text fill="black" x="4" xml:space="preserve" y="14" clip-path="url(#clipPath3)" stroke="none">1</text>
      </g>
      <g font-family="'Segoe UI'" text-rendering="geometricPrecision" shape-rendering="geometricPrecision">
        <path d="M0 0 L14 0 L14 18 L0 18 L0 0 ZM1 1 L13 1 L13 17 L1 17 L1 1 Z" fill-rule="evenodd" clip-path="url(#clipPath3)" stroke="none"/>
      </g>
    </g>
  </g>
</svg>
